inDegrees=yes
name=ik_S54_A05_T02
DataType=double
version=3
OpenSimVersion=4.3-2021-08-27-4bc7ad9
endheader
time	pelvis_tilt	pelvis_list	pelvis_rotation	pelvis_tx	pelvis_ty	pelvis_tz	hip_flexion_r	hip_adduction_r	hip_rotation_r	knee_angle_r	knee_angle_r_beta	ankle_angle_r	subtalar_angle_r	mtp_angle_r	hip_flexion_l	hip_adduction_l	hip_rotation_l	knee_angle_l	knee_angle_l_beta	ankle_angle_l	subtalar_angle_l	mtp_angle_l	lumbar_extension	lumbar_bending	lumbar_rotation	arm_flex_r	arm_add_r	arm_rot_r	elbow_flex_r	pro_sup_r	wrist_flex_r	wrist_dev_r	arm_flex_l	arm_add_l	arm_rot_l	elbow_flex_l	pro_sup_l	wrist_flex_l	wrist_dev_l
7.019999999999938	-5.769859709733323	-3.103500800009834	20.62156831176701	0	0.9399999999999999	0	44.08527634868815	-10.81815034866388	-10.71953966942425	54.25337882375042	0.9469000908062133	0	0	0	44.08527634868815	-10.81815034866388	-10.71953966942425	54.25337882375042	0.9469000908062133	0	0	0	-3.979189355002087	-4.216213604758963	1.570098909223761	65.99519998139711	-1.512601838201305	-7.931652718919987	39.82113945160026	106.1499476201413	0	0	28.31050696960486	-17.11445661625093	-7.598060370990566	49.792170160513	145.2494328060068	0	0
7.039999999999938	-5.773282636958067	-3.132378061926257	20.60345666285957	0	0.9399999999999999	0	44.08793948030514	-10.8139071827731	-10.71619571315721	54.2549793693513	0.9469280255967768	0	0	0	44.08793948030514	-10.8139071827731	-10.71619571315721	54.2549793693513	0.9469280255967768	0	0	0	-3.997592544701942	-4.235704332939371	1.577712631598983	66.03426401009041	-1.500778153712108	-7.97511524769935	39.92894091965892	106.0323071301685	0	0	28.33284006898981	-17.1638174256874	-7.58606848512397	49.81484060857648	145.2178694252113	0	0
7.059999999999937	-5.787903812326308	-3.167096129455291	20.62654529919339	0	0.9399999999999999	0	44.08818670338101	-10.81314114205498	-10.71576251793804	54.2551154030746	0.9469303998331423	0	0	0	44.08818670338101	-10.81314114205498	-10.71576251793804	54.2551154030746	0.9469303998331423	0	0	0	-4.027557954949089	-4.256080107112862	1.508722344603471	66.14376849419541	-1.24691178732433	-7.71997422526991	40.08490112086908	105.7820826631581	0	0	28.39128800521078	-17.22319885138575	-7.52363309022368	49.78388895239203	145.1716164340484	0	0
7.079999999999937	-5.80551701924592	-3.176386386563724	20.5508462977206	0	0.9399999999999999	0	44.08839794319583	-10.81249544666048	-10.71539564234742	54.25523304372987	0.9469324530499109	0	0	0	44.08839794319583	-10.81249544666048	-10.71539564234742	54.25523304372987	0.9469324530499109	0	0	0	-4.046724416545373	-4.259685277305691	1.528542792810365	66.18571247918244	-1.218586215854981	-7.65788154599561	40.46641449906289	106.1677222405966	0	0	28.44182875470714	-17.24491191603855	-7.45468865259618	49.77228537542111	145.107337133582	0	0
7.099999999999937	-5.816407482451486	-3.208222568058936	20.47159164247424	0	0.9399999999999999	0	44.08866036611636	-10.81168942578702	-10.71493837566314	54.25537846860151	0.9469349911927352	0	0	0	44.08866036611636	-10.81168942578702	-10.71493837566314	54.25537846860151	0.9469349911927352	0	0	0	-4.068222952375633	-4.28554692735336	1.535179025806358	66.2944002117235	-1.097041645852374	-7.726058904403175	40.63498687812802	106.5606700377204	0	0	28.47449615569744	-17.32961840807258	-7.399513656304062	49.7760566926785	145.0552535282497	0	0
7.119999999999936	-5.824367542680915	-3.249811346360844	20.32716567401871	0	0.9399999999999999	0	44.08908715417129	-10.8103701153418	-10.71419142509784	54.25561338793818	0.9469390913086368	0	0	0	44.08908715417129	-10.8103701153418	-10.71419142509784	54.25561338793818	0.9469390913086368	0	0	0	-4.089948635170844	-4.322226694026453	1.555630601726577	66.43541923290935	-0.9297767881399164	-7.900232960145511	40.98286598479402	107.4026576408556	0	0	28.47085611383341	-17.45896013058544	-7.37217718183999	49.80075811950923	144.9896979832985	0	0
7.139999999999936	-5.826918011059049	-3.249452378972539	20.35009684785331	0	0.9399999999999999	0	44.08943305729092	-10.80931900639946	-10.71359281397354	54.25580677518132	0.9469424665527609	0	0	0	44.08943305729092	-10.80931900639946	-10.71359281397354	54.25580677518132	0.9469424665527609	0	0	0	-4.093774468832758	-4.318379029302459	1.535938150177585	66.54859728300742	-0.7730022664993925	-7.897298029561338	41.45936344225391	108.1728618821395	0	0	28.43046281324632	-17.47037943114408	-7.230188985447924	49.84882889472006	144.9109536807887	0	0
7.159999999999935	-5.859793175685605	-3.307031389585429	20.39961147611351	0	0.9399999999999999	0	44.08968332283504	-10.80854609853774	-10.71315495611002	54.25594445922755	0.9469448695926951	0	0	0	44.08968332283504	-10.80854609853774	-10.71315495611002	54.25594445922755	0.9469448695926951	0	0	0	-4.156003060181845	-4.341085302639972	1.335341145337611	66.90103232755747	0.03975126235394481	-7.261426786772092	41.91196286445463	108.4917299916864	0	0	28.47091030820989	-17.59897709899596	-7.161579923713334	49.89982685693346	144.8003309134493	0	0
7.179999999999935	-5.860424671843941	-3.339302067025153	20.47730896547762	0	0.9399999999999999	0	44.09014867303492	-10.80710281853462	-10.71233837711977	54.25619926250701	0.9469493167488665	0	0	0	44.09014867303492	-10.80710281853462	-10.71233837711977	54.25619926250701	0.9469493167488665	0	0	0	-4.175629781270277	-4.357486442967564	1.207056689803661	67.0554020401231	0.5300609384667204	-6.697558020657518	42.63292306078868	108.2437005495945	0	0	28.42448373083485	-17.6726282706752	-7.011827585999773	49.96741729408289	144.64479228967	0	0
7.199999999999934	-5.86915488568217	-3.370920308334547	20.63078812826103	0	0.9399999999999999	0	44.09064009249921	-10.80558014650829	-10.71147639650553	54.25646827031128	0.9469540118207646	0	0	0	44.09064009249921	-10.80558014650829	-10.71147639650553	54.25646827031128	0.9469540118207646	0	0	0	-4.204508206715937	-4.365755422435215	1.034987505923778	67.1942303128472	1.089043257005466	-5.89410684066486	44.30209475099863	107.1023629118092	0	0	28.42087904660498	-17.68841111047322	-6.864064136076014	50.01324829036241	144.5480179766523	0	0
7.219999999999934	-5.876485723878525	-3.417946048715223	20.74836581094729	0	0.9399999999999999	0	44.09102337215496	-10.80439419219433	-10.71080459300565	54.25667816621405	0.9469576751953543	0	0	0	44.09102337215496	-10.80439419219433	-10.71080459300565	54.25667816621405	0.9469576751953543	0	0	0	-4.235518653118468	-4.393732434335627	0.9094102669177992	67.39063729936829	1.666941989472245	-5.231323381648827	44.95746893208024	106.3669139566289	0	0	28.44565193287876	-17.7294000189222	-6.690947605874514	50.05968668940037	144.4615622805699	0	0
